<?xml version="1.0" encoding="utf-8"?>
<!-- Generator: Adobe Illustrator 23.0.1, SVG Export Plug-In . SVG Version: 6.00 Build 0)  -->
<svg version="1.1" id="Layer_1" xmlns="http://www.w3.org/2000/svg" xmlns:xlink="http://www.w3.org/1999/xlink" x="0px" y="0px"
	 viewBox="0 0 500 450" style="enable-background:new 0 0 500 450;" xml:space="preserve">
<style type="text/css">
	.st0{opacity:0.1;fill:#6C63FF;enable-background:new    ;}
	.st1{fill:#D48A9B;}
	.st2{fill:#6C63FF;}
	.st3{opacity:0.2;fill:#DDA2A6;enable-background:new    ;}
	.st4{opacity:0.1;enable-background:new    ;}
	.st5{opacity:0.1;}
	.st6{fill:#E1DEE5;}
	.st7{fill:#A36468;}
	.st8{fill:#D9D6DF;}
	.st9{fill:#B8797D;}
	.st10{opacity:0.1;fill:#FFFFFF;enable-background:new    ;}
	.st11{fill:url(#SVGID_1_);}
	.st12{fill:#EFB7B9;}
	.st13{fill:#67647E;}
	.st14{fill:#444053;}
	.st15{fill:#F3F5F9;}
	.st16{fill:#D1D9EC;}
	.st17{fill:#DFE6F5;}
	.st18{fill:#FFFFFF;}
	.st19{fill:none;}
	.st20{fill:#585268;}
	.st21{fill:#746D83;}
	.st22{fill:#4C4C56;}
	.st23{fill:#D4DFEC;}
</style>
<path class="st0" d="M500.06,176.78h-46.04v54.83h42.68c0.11,0.57,0.22,1.13,0.34,1.69h-43.02v44.21l0.22-0.07
	c1.22-0.42,2.42-0.87,3.62-1.34l0.77-0.31c1.23-0.5,2.44-1.02,3.62-1.59c0.43-0.19,0.85-0.39,1.26-0.6
	c6.62-3.2,12.72-7.35,18.11-12.3c0.16-0.13,0.3-0.27,0.44-0.4c0.74-0.7,1.46-1.4,2.16-2.13l0.77-0.81c0.83-0.88,1.62-1.79,2.4-2.71
	l0.34-0.4c3.12-3.76,5.74-7.89,7.8-12.3c0.07-0.13,0.12-0.27,0.18-0.4c0.63-1.39,1.19-2.79,1.68-4.23c0.21-0.61,0.41-1.21,0.59-1.82
	c0.06-0.18,0.12-0.36,0.17-0.54c2.55-8.78,2.85-17.91,2.85-26.98c0-1.06,0-2.12,0-3.17c0-3.67-0.06-7.38-0.13-11.04
	c0-0.95-0.05-1.9-0.07-2.86c-0.06-2.44-0.15-4.87-0.27-7.3c-0.03-0.68-0.06-1.35-0.11-2.02c0-0.39-0.04-0.78-0.07-1.17
	C500.26,179.58,500.17,178.18,500.06,176.78z"/>
<path class="st0" d="M454.02,115.74h25.25c-4.14-5.65-8.63-11.05-13.45-16.16c-3.76-4.02-7.7-7.95-11.82-11.73L454.02,115.74z"/>
<path class="st0" d="M454.02,117.43v57.65h45.9c0-0.17-0.03-0.34-0.05-0.49c-0.04-0.45-0.08-0.91-0.13-1.36
	c-0.05-0.46-0.11-1.06-0.17-1.6c-0.06-0.54-0.12-1.16-0.19-1.73c-0.07-0.57-0.13-1.16-0.21-1.73c-0.08-0.58-0.15-1.15-0.23-1.72
	c-0.08-0.57-0.16-1.15-0.25-1.72c-0.07-0.49-0.14-0.94-0.21-1.42c-0.11-0.67-0.22-1.34-0.33-2.01c-0.01-0.1-0.03-0.2-0.06-0.3
	c-0.83-4.89-1.96-9.72-3.38-14.48c-1.5-5.04-3.4-9.95-5.69-14.7c-2.47-5.02-5.33-9.84-8.57-14.41L454.02,117.43z"/>
<path class="st0" d="M344.68,176.78v54.83h98.34v-54.83H344.68z M344.68,233.3v37.13c11.45-3.6,24.54-2.14,36.41,0.81
	c9.19,2.29,18.14,5.41,27.32,7.66c4.1,1.03,8.26,1.8,12.45,2.31l1.03,0.11c0.5,0.05,1,0.1,1.5,0.14l1.5,0.1h0.16h0.67
	c0.08,0,0.15,0,0.23,0l0.81,0.03h0.03c0.39,0,0.78,0,1.17,0.03h0.5c0.39,0,0.78,0,1.17,0h0.86h0.69c0.3,0,0.59,0,0.88-0.03
	c0.47,0,0.94-0.04,1.42-0.07l0,0l0.88-0.05l1.08-0.08c0.77-0.06,1.5-0.14,2.28-0.23c0.3-0.03,0.61-0.07,0.91-0.11l0.45-0.05
	c0.76-0.1,1.5-0.22,2.26-0.34c0.56-0.08,1.11-0.19,1.67-0.29V233.3H344.68z M417.83,115.72v1.69h-73.14v57.67h98.34v-57.65h-4.93
	v-1.69h4.93V78.48c-19.13-15.14-41.49-26.99-66.39-32.47c-10.49-2.28-21.21-3.38-31.95-3.27v73L417.83,115.72z M192.98,115.39
	l0.35,0.32h140.36V43.24c-24.99,2.04-49.36,10.29-69,23.95c-9.44,6.56-17.92,14.33-28.51,19.36c-5.56,2.71-11.63,4.25-17.83,4.53
	L192.98,115.39z M192.01,85.66v16.41l13.56-13c-5.04-1.71-9.02-2.88-13.58-3.38L192.01,85.66z M191.56,292.07h0.45v35.96
	c5.12-0.37,10.22-0.89,15.29-1.54c22.71-2.87,44.96-8.54,66.23-16.85l0,0c2.28-0.9,4.55-1.83,6.8-2.78c1.5-0.64,2.99-1.3,4.47-1.97
	c2.22-1,4.43-2.04,6.62-3.09c9.69-4.68,19.04-10.02,27.98-15.97c0.56-0.37,1.12-0.74,1.67-1.12c1.11-0.75,2.21-1.52,3.3-2.28
	c0.55-0.39,1.09-0.78,1.63-1.17l1.11-0.84c1.12-0.82,2.24-1.65,3.37-2.46l0,0c1.05-0.74,2.1-1.48,3.17-2.16v-42.51H220.91
	c0.08-0.25,0.16-0.49,0.24-0.76c-0.09,0.26-0.17,0.49-0.25,0.76h-28.91v58.79L191.56,292.07z M192.01,117.42v57.66h141.67v-57.65
	L192.01,117.42z M192.01,176.77v54.84h141.67v-54.83L192.01,176.77z M163.69,87.35L181,103.94V85.58
	C175.2,85.94,169.43,86.53,163.69,87.35z M43.18,176.78v54.83H181v-54.83H43.18z M76.49,312.19c20.89,7.81,42.73,12.9,64.96,15.14
	h0.1c4.2,0.44,8.42,0.77,12.64,1.01h0.16l0,0c8.86,0.49,17.75,0.61,26.63,0.28V233.3H43.18l0.5,63.13 M5.01,231.61h27.18v-54.83
	H21.44c-1.12,1.93-2.2,3.87-3.22,5.83c-0.55,1.05-1.09,2.1-1.61,3.17C9.53,200.21,5.03,216.07,5.01,231.61z M5.01,233.3
	c0.22,11.14,2.77,22.07,8.38,32.17c4.66,8.39,11.13,15.74,18.78,22.14V233.3H5.01z M22.42,175.08h9.74v-14.27
	c-3.51,4.57-6.76,9.34-9.72,14.27L22.42,175.08z M83.48,115.74h94.27l0.34-0.32l-0.5-0.49l0,0l-26.51-25.4
	c-7.87,1.61-15.64,3.66-23.27,6.13c-0.72,0.23-1.44,0.49-2.16,0.71C110.91,101.27,96.77,107.77,83.48,115.74z M43.18,147.9v27.19
	h120.87l0,0h0.03h16.94V119l-1.93-1.54H80.71C66.92,125.97,54.3,136.2,43.18,147.9z"/>
<path class="st0" d="M454.02,146.51v28.57h45.9c0-0.17-0.03-0.34-0.05-0.49c-0.04-0.45-0.08-0.91-0.13-1.36
	c-0.05-0.46-0.11-1.06-0.17-1.6c-0.06-0.54-0.12-1.16-0.19-1.73c-0.07-0.57-0.13-1.16-0.21-1.73c-0.08-0.58-0.15-1.15-0.23-1.72
	c-0.08-0.57-0.16-1.15-0.25-1.72c-0.07-0.49-0.14-0.94-0.21-1.42c-0.11-0.67-0.22-1.34-0.33-2.01c-0.01-0.1-0.03-0.2-0.06-0.3
	c-0.83-4.89-1.96-9.72-3.38-14.48L454.02,146.51z"/>
<path class="st0" d="M500.06,176.78h-46.04v54.83h42.68c0.11,0.57,0.22,1.13,0.34,1.69h-43.02v44.21l0.22-0.07
	c1.22-0.42,2.42-0.87,3.62-1.34l0.77-0.31c1.23-0.5,2.44-1.02,3.62-1.59c0.43-0.19,0.85-0.39,1.26-0.6
	c6.62-3.2,12.72-7.35,18.11-12.3c0.16-0.13,0.3-0.27,0.44-0.4c0.74-0.7,1.46-1.4,2.16-2.13l0.77-0.81c0.83-0.88,1.62-1.79,2.4-2.71
	l0.34-0.4c3.12-3.76,5.74-7.89,7.8-12.3c0.07-0.13,0.12-0.27,0.18-0.4c0.63-1.39,1.19-2.79,1.68-4.23c0.21-0.61,0.41-1.21,0.59-1.82
	c0.06-0.18,0.12-0.36,0.17-0.54c2.55-8.78,2.85-17.91,2.85-26.98c0-1.06,0-2.12,0-3.17c0-3.67-0.06-7.38-0.13-11.04
	c0-0.95-0.05-1.9-0.07-2.86c-0.06-2.44-0.15-4.87-0.27-7.3c-0.03-0.68-0.06-1.35-0.11-2.02c0-0.39-0.04-0.78-0.07-1.17
	C500.26,179.58,500.17,178.18,500.06,176.78z"/>
<polygon class="st0" points="408.41,125.68 408.41,175.08 443.03,175.08 443.03,125.68 438.09,125.68 438.09,108.96 417.83,108.96 
	417.83,125.68 "/>
<rect x="408.41" y="176.78" class="st0" width="34.62" height="54.83"/>
<path class="st0" d="M443.03,233.3h-34.61v45.59c4.1,1.03,8.25,1.8,12.45,2.31l1.03,0.11c0.5,0.05,1,0.1,1.5,0.14l1.5,0.1
	c0.05,0,0.11,0,0.16,0c0.22,0,0.45,0,0.67,0.03h0.23c0.27,0,0.54,0,0.82,0.03l0,0c0.39,0,0.78,0,1.17,0.03h0.5c0.39,0,0.78,0,1.17,0
	h0.86h0.69l0.88-0.03c0.47,0,0.94-0.04,1.41-0.07l0,0l0.87-0.05l1.09-0.08c0.76-0.06,1.5-0.14,2.27-0.23l0.91-0.11l0.45-0.05
	c0.76-0.1,1.5-0.21,2.26-0.34c0.56-0.08,1.11-0.19,1.67-0.29L443.03,233.3z"/>
<rect x="191.99" y="119.85" class="st0" width="28.55" height="55.23"/>
<polygon class="st0" points="191.99,176.78 191.99,231.61 333.68,231.61 333.68,207.96 258.21,207.96 258.21,221.91 220.54,221.91 
	220.54,176.78 "/>
<path class="st0" d="M191.54,292.09h0.45v35.97c5.12-0.38,10.22-0.9,15.29-1.54c22.71-2.89,44.97-8.56,66.25-16.88
	c6.09-2.4,12.05-5.01,17.89-7.84c9.69-4.68,19.04-10.02,27.98-15.97c2.23-1.49,4.43-3.01,6.6-4.57c1.5-1.09,3-2.19,4.51-3.27
	c1.05-0.74,2.1-1.48,3.17-2.17V233.3H220.92c0.08-0.25,0.16-0.49,0.24-0.75c-0.09,0.25-0.17,0.49-0.25,0.75h-28.91v58.77
	L191.54,292.09z"/>
<path class="st0" d="M117.54,115.74h18.6v-5.06h-8.33V95.64c-0.72,0.23-1.44,0.49-2.16,0.71v14.32h-8.11V115.74z"/>
<path class="st0" d="M72.73,175.08h91.32h-0.03h0.05H181v-55.23h-4.8v40.83h-21.93v-24.17h-18.12v-19.09h-18.6v19.09H99.43v24.16
	h-26.7V175.08z"/>
<path class="st0" d="M72.73,176.78v54.83H181v-54.83H72.73z M76.51,312.19c20.89,7.81,42.73,12.9,64.96,15.14h0.1
	c4.2,0.44,8.42,0.77,12.64,1.01h0.16l0,0c8.86,0.49,17.75,0.61,26.63,0.28V233.3H72.73v19.44H43.18l0.16,43.4"/>
<path class="st0" d="M30.28,233.3H5.03c0.22,11.14,2.78,22.07,8.38,32.17c4.66,8.39,11.13,15.74,18.78,22.14v-34.87h-1.91
	L30.28,233.3z"/>
<path class="st0" d="M5.01,231.61h25.27v-45.82H16.6C9.53,200.21,5.03,216.07,5.01,231.61z"/>
<rect x="191.99" y="135.2" class="st0" width="15.29" height="17.32"/>
<rect x="191.99" y="171.1" class="st0" width="15.29" height="3.98"/>
<rect x="191.99" y="176.78" class="st0" width="15.29" height="11.64"/>
<rect x="191.99" y="206.99" class="st0" width="15.29" height="17.32"/>
<rect x="191.99" y="242.88" class="st0" width="15.29" height="17.32"/>
<path class="st0" d="M191.99,292.06h-0.45H191.99v4.02h15.29v-17.32h-15.29V292.06z"/>
<path class="st0" d="M191.99,314.66v13.38c5.12-0.38,10.22-0.9,15.29-1.54v-11.81L191.99,314.66z"/>
<rect x="268.14" y="230.33" class="st0" width="65.54" height="1.27"/>
<rect x="268.14" y="233.3" class="st0" width="65.54" height="4.88"/>
<rect x="268.14" y="254.15" class="st0" width="65.54" height="7.84"/>
<path class="st0" d="M268.14,277.97v7.84h51.27c2.23-1.49,4.43-3.01,6.6-4.58c1.5-1.08,3-2.19,4.51-3.26L268.14,277.97z"/>
<path class="st0" d="M268.14,301.79v7.84h5.39c6.09-2.39,12.05-5.01,17.89-7.84H268.14z"/>
<rect x="141.47" y="182.09" class="st0" width="12.9" height="11.27"/>
<rect x="420.83" y="129.57" class="st0" width="12.9" height="11.27"/>
<rect x="420.83" y="155.75" class="st0" width="12.9" height="11.27"/>
<rect x="420.83" y="181.93" class="st0" width="12.9" height="11.27"/>
<rect x="420.83" y="208.11" class="st0" width="12.9" height="11.27"/>
<rect x="420.83" y="234.3" class="st0" width="12.9" height="11.27"/>
<rect x="420.83" y="260.48" class="st0" width="12.9" height="11.27"/>
<rect x="92.21" y="182.09" class="st0" width="12.9" height="11.27"/>
<rect x="141.47" y="209.89" class="st0" width="12.9" height="11.27"/>
<rect x="92.21" y="209.89" class="st0" width="12.9" height="11.27"/>
<rect x="141.47" y="237.69" class="st0" width="12.9" height="11.27"/>
<rect x="92.21" y="237.69" class="st0" width="12.9" height="11.27"/>
<rect x="141.47" y="265.49" class="st0" width="12.9" height="11.27"/>
<rect x="92.21" y="265.49" class="st0" width="12.9" height="11.27"/>
<rect x="141.47" y="293.3" class="st0" width="12.9" height="11.27"/>
<rect x="92.21" y="293.3" class="st0" width="12.9" height="11.27"/>
<polygon class="st0" points="154.36,328.37 154.36,321.1 141.47,321.1 141.47,327.33 "/>
<path class="st0" d="M454.02,160.98v6.45h44.15v-6.45H454.02z M493.78,161.39h3.6v5.64h-3.62L493.78,161.39z M489.38,161.39H493
	v5.64h-3.64L489.38,161.39z M485,161.39h3.62v5.64H485V161.39z M480.6,161.39h3.62v5.64h-3.62V161.39z M476.21,161.39h3.65v5.64
	h-3.62L476.21,161.39z M471.81,161.39h3.62v5.64h-3.62V161.39z M467.41,161.39h3.62v5.64h-3.62V161.39z M463.02,161.39h3.62v5.64
	h-3.62V161.39z M458.63,161.39h3.62v5.64h-3.62V161.39z M454.24,161.39h3.62v5.64h-3.62V161.39z"/>
<path class="st0" d="M454.02,179.76v6.45h44.15v-6.45H454.02z M493.78,180.17h3.6v5.63h-3.62L493.78,180.17z M489.38,180.17H493
	v5.63h-3.64L489.38,180.17z M485,180.17h3.62v5.63H485V180.17z M480.6,180.17h3.62v5.63h-3.62V180.17z M476.21,180.17h3.65v5.63
	h-3.62L476.21,180.17z M471.81,180.17h3.62v5.63h-3.62V180.17z M467.41,180.17h3.62v5.63h-3.62V180.17z M463.02,180.17h3.62v5.63
	h-3.62V180.17z M458.63,180.17h3.62v5.63h-3.62V180.17z M454.24,180.17h3.62v5.63h-3.62V180.17z"/>
<path class="st0" d="M454.02,198.53v6.44h44.15v-6.44H454.02z M493.78,198.93h3.6v5.64h-3.62L493.78,198.93z M489.38,198.93H493
	v5.64h-3.64L489.38,198.93z M485,198.93h3.62v5.64H485V198.93z M480.6,198.93h3.62v5.64h-3.62V198.93z M476.21,198.93h3.65v5.64
	h-3.62L476.21,198.93z M471.81,198.93h3.62v5.64h-3.62V198.93z M467.41,198.93h3.62v5.64h-3.62V198.93z M463.02,198.93h3.62v5.64
	h-3.62V198.93z M458.63,198.93h3.62v5.64h-3.62V198.93z M454.24,198.93h3.62v5.64h-3.62V198.93z"/>
<path class="st0" d="M454.02,217.29v6.44h44.15v-6.44H454.02z M493.78,217.7h3.6v5.64h-3.62L493.78,217.7z M489.38,217.7H493v5.64
	h-3.64L489.38,217.7z M485,217.7h3.62v5.64H485V217.7z M480.6,217.7h3.62v5.64h-3.62V217.7z M476.21,217.7h3.65v5.64h-3.62
	L476.21,217.7z M471.81,217.7h3.62v5.64h-3.62V217.7z M467.41,217.7h3.62v5.64h-3.62V217.7z M463.02,217.7h3.62v5.64h-3.62V217.7z
	 M458.63,217.7h3.62v5.64h-3.62V217.7z M454.24,217.7h3.62v5.64h-3.62V217.7z"/>
<path class="st0" d="M454.02,236.06v6.46h41.51c0.06-0.13,0.12-0.27,0.18-0.4h-1.93v-5.65h3.6v1.4c0.21-0.6,0.41-1.2,0.59-1.81
	L454.02,236.06z M489.38,236.47H493v5.63h-3.64L489.38,236.47z M485,236.47h3.62v5.63H485V236.47z M480.6,236.47h3.62v5.63h-3.62
	V236.47z M476.21,236.47h3.65v5.63h-3.62L476.21,236.47z M471.81,236.47h3.62v5.63h-3.62V236.47z M467.41,236.47h3.62v5.63h-3.62
	V236.47z M463.02,236.47h3.62v5.63h-3.62V236.47z M458.63,236.47h3.62v5.63h-3.62V236.47z M454.24,236.47h3.62v5.63h-3.62V236.47z"
	/>
<path class="st0" d="M454.02,254.82v6.44h27.6c0.16-0.13,0.3-0.28,0.45-0.4h-1.47v-5.62h3.62v3.52l0.78-0.81v-2.71h2.4
	c0.12-0.14,0.23-0.28,0.34-0.4L454.02,254.82z M476.21,255.23h3.65v5.64h-3.62L476.21,255.23z M471.81,255.23h3.62v5.64h-3.62
	V255.23z M467.41,255.23h3.62v5.64h-3.62V255.23z M463.02,255.23h3.62v5.64h-3.62V255.23z M458.63,255.23h3.62v5.64h-3.62V255.23z
	 M454.24,255.23h3.62v5.64h-3.62V255.23z"/>
<path class="st0" d="M454.02,273.61v3.9c0.07-0.02,0.15-0.04,0.22-0.07v-3.44h3.62v2.1l0.77-0.31v-1.77h3.62v0.2
	c0.43-0.19,0.85-0.39,1.26-0.6L454.02,273.61z"/>
<path class="st0" d="M164.03,175.09h0.03l0,0H164.03z M191.54,292.09h0.45l0,0H191.54z M220.91,233.3L220.91,233.3
	c0.08-0.25,0.16-0.49,0.24-0.76C221.06,232.8,220.98,233.05,220.91,233.3z M164.03,175.09h0.03l0,0H164.03z M417.83,115.74v1.69
	h20.27v-1.69H417.83z M191.54,292.09h0.45l0,0H191.54z M220.91,233.3L220.91,233.3c0.08-0.25,0.16-0.49,0.24-0.76
	C221.06,232.8,220.98,233.05,220.91,233.3z M164.03,175.09h0.03l0,0H164.03z M191.54,292.09h0.45l0,0H191.54z M220.91,233.3
	L220.91,233.3c0.08-0.25,0.16-0.49,0.24-0.76C221.06,232.8,220.98,233.05,220.91,233.3z"/>
<ellipse class="st0" cx="454.17" cy="446.44" rx="17.32" ry="1.88"/>
<polygon class="st1" points="336.68,306.07 328.02,305.6 327.44,281.18 327.3,275.37 336.43,273.71 336.49,281.21 "/>
<polygon class="st1" points="329.94,301.82 285.47,328.98 284.51,337.24 289.32,337.48 289.32,331.57 318.4,315.52 283.31,358.26 
	283.31,364.87 289.08,364.87 288.6,357.55 329.22,312.21 334.27,312.68 377.06,360.38 378.02,368.42 383.79,368.65 382.83,360.38 
	348.94,318.82 371.53,334.17 372.01,340.78 376.58,341.02 376.1,332.99 333.07,300.4 "/>
<path class="st2" d="M274.08,255.36c4.2-5.13,7.72-10.77,10.48-16.77c3.06-6.65,6.41-14.33,6.67-16.6
	c0.5-4.25,12.74-12.75,26.2-13.22c8.78-0.31,22.45-7.04,30.92-11.69c7.96-4.45,16.81-7.13,25.94-7.87
	c9.9-0.73,19.21,1.18,14.52,12.46l-62.95,74.89c0,0-53.68,9.29-56.99-5.65c-0.19-0.75-0.44-1.49-0.77-2.19
	C267.47,267.29,267.31,263.61,274.08,255.36z"/>
<path class="st3" d="M278.8,256.84c4.23-5.19,7.78-10.87,10.58-16.92c2.85-6.22,5.88-13.19,6.12-15.3
	c0.46-4.06,12.19-12.18,25.07-12.63c8.4-0.3,21.48-6.72,29.58-11.16c7.62-4.24,16.1-6.8,24.83-7.5c9.47-0.7,18.38,1.13,13.91,11.91
	l-49.93,71.83c0,0-61.59,8.58-64.85-5.62c-0.19-0.75-0.45-1.49-0.77-2.2C272.77,267.83,272.69,264.38,278.8,256.84z"/>
<path class="st4" d="M336.49,281.21c-2.89,0-5.94,0-9.05-0.03l-0.14-5.82l9.13-1.65L336.49,281.21z"/>
<g class="st5">
	<polygon points="371.53,332.76 348.94,317.41 351.52,320.58 371.53,334.17 372.01,340.78 376.58,341.02 376.49,339.6 
		372.01,339.37 	"/>
	<polygon points="289.32,330.16 289.32,331.57 316.28,316.69 318.4,314.1 	"/>
	<polygon points="283.31,363.45 283.31,364.87 289.08,364.87 288.98,363.45 	"/>
	<polygon points="289.32,336.06 284.67,335.83 284.51,337.24 289.32,337.48 	"/>
	<polygon points="378.02,367 377.06,358.97 334.27,311.27 329.22,310.79 288.6,356.13 288.68,357.46 329.22,312.21 334.27,312.68 
		377.06,360.38 378.02,368.42 383.79,368.65 383.62,367.23 	"/>
</g>
<path class="st4" d="M331.38,234.68c0,0,11.26,8.09,6.33,8.18C332.79,242.96,331.38,234.68,331.38,234.68z"/>
<path class="st2" d="M284.15,278.93c0,0,18.63-1.42,25.6-14.64c0,0,14.18-27.63,25.72-30.7c11.54-3.07,32.93-9.92,41.82-20.54
	c8.89-10.63,12.62-18.77,12.62-18.77s2.29,8.6-4.93,18.74c-7.23,10.14-9.86,25.75-14.9,42.31c-5.05,16.55-6.97,23.12-16.1,24.11
	c-6.89,0.71-43.29,0.35-60.7,0C287.59,279.27,284.15,278.93,284.15,278.93z"/>
<path class="st3" d="M284.15,278.93c0,0,18.63-1.42,25.6-14.64c0,0,14.18-27.63,25.72-30.7c11.54-3.07,32.93-9.92,41.82-20.54
	c8.89-10.63,12.62-18.77,12.62-18.77s2.29,8.6-4.93,18.74c-7.23,10.14-9.86,25.75-14.9,42.31c-5.05,16.55-6.97,23.12-16.1,24.11
	c-6.89,0.71-43.29,0.35-60.7,0C287.59,279.27,284.15,278.93,284.15,278.93z"/>
<path class="st2" d="M288.84,278.93c0,0,17.81-1.37,24.47-14.18c0,0,13.56-26.75,24.59-29.72c11.03-2.97,31.48-9.61,39.98-19.9
	c8.5-10.29,12.06-18.18,12.06-18.18s2.18,8.36-4.71,18.18c-6.89,9.81-9.42,24.92-14.25,40.93c-4.83,16.01-6.66,22.41-15.39,23.32
	c-6.58,0.69-41.38,0.34-58.02,0C292.13,279.28,288.84,278.93,288.84,278.93z"/>
<path class="st4" d="M274.42,272.04c0,0,9.73,3.66,15.26,1.65c5.53-2.01,19.23-7.91,19.23-7.91S285.83,267.22,274.42,272.04z"/>
<path class="st6" d="M339.51,443.91c0,0-27.98-1.48-34.8-5.41s-16.48-3.94-16.53-3.94L176.76,410.7l-46.32-10.82l-8.26-1.07
	l27.29-30.68l0.83-0.35l40.23-17.1c0,0,18.03,0.98,21.59,12.53c0.24,0.81,0.41,1.65,0.5,2.49c0.37,3.6-0.64,7.21-2.84,10.11
	c-1.42,1.91-3.17,4.62-3.72,7.01c-0.31,1.35-0.24,2.59,0.5,3.54c1.5,1.47,3.16,2.77,4.95,3.88c9.81,6.4,34.61,16.93,77.93,0.79
	c0,0,18.53-17.96,32.55-10.33C336,388.32,339.51,443.91,339.51,443.91z"/>
<path class="st4" d="M206.07,382.81c-0.31,1.35-0.24,2.59,0.5,3.54c1.5,1.47,3.16,2.77,4.95,3.88l-84.34,6.2l23.12-28.66l40.23-17.1
	c0,0,18.03,0.98,21.59,12.53c0.24,0.81,0.41,1.65,0.5,2.49c0.37,3.6-0.64,7.21-2.84,10.11
	C208.37,377.71,206.62,380.42,206.07,382.81z"/>
<polygon class="st7" points="123.67,270 192.78,271.48 192.78,352.74 127.18,396.44 111.41,382.17 114.66,334.94 111.41,290.91 "/>
<path class="st8" d="M84.36,256.72l80.68-24.43c1.45-0.44,2.97-0.6,4.48-0.49l192.75,13.82c16.49,1.11,32.35,6.61,45.9,15.91
	c12.47,8.64,24.83,21.91,30.55,42c4.14,14.83,3.85,30.51-0.83,45.18l-17.03,54.12c0,0,12.77-117.58-114.68-123.48L84.36,256.72z"/>
<path class="st9" d="M127.18,268.28v130.53c0,0-22.11-3.06-26.04-7.3c-3.22-3.48-21.91-13.28-30.02-23.38
	c-1.78-2.21-3.05-4.43-3.54-6.63c-2.71-12.14-13.77-40.83-13.77-40.83l3-28.04l12.52-18.2l24.29-10.82h18.78L127.18,268.28z"/>
<path class="st8" d="M92.13,270c0,0-35.94,22.14-28.07,57.76c0.64,2.9,1.2,5.82,1.56,8.77c1.44,11.52,10.06,44.63,61.56,59.9v3.44
	l-21.85-5.99l-14.83-8.03l-11.32-9.98l-13.84-16.59l-6.42-13.53l-2.35-17.82L55.2,307.6l3.31-17.45l7.81-11.35l9.51-7.27L92.13,270z
	"/>
<path class="st4" d="M127.18,268.28v20.77c-15.67,1.67-64.2,11.32-55.59,66.42l-0.48,12.65c-1.78-2.21-3.05-4.43-3.54-6.63
	c-2.71-12.14-13.77-40.83-13.77-40.83l3-28.04l12.52-18.2l24.29-10.82h18.78L127.18,268.28z"/>
<path class="st10" d="M209.79,375.8c-1.42,1.91-3.17,4.62-3.72,7.01c-2.18-2.46-2.65-5.29,0.5-7.53c3.95-2.82,5.27-7.72,5.56-12.07
	c0.24,0.81,0.41,1.65,0.5,2.49C213.01,369.3,211.99,372.9,209.79,375.8z"/>
<path class="st9" d="M412.12,389.06l-9.51,31.73l-21.53,20.66l-27.04,5.41l-42.06-7.38V292.63c0,0,7.26-4.67,8.01-4.67
	s21.03,3.2,21.03,3.2l45.92,32.36l1.9,1.34l20.53,30.01L412.12,389.06z"/>
<polygon class="st7" points="311.96,286.48 311.96,439.48 316.02,440.2 316.02,286.48 "/>
<path class="st4" d="M387.83,333.71c-30.05-24.25-63.45-27.82-75.87-28.26v-12.79c0,0,7.26-4.67,8.01-4.67s21.03,3.2,21.03,3.2
	l45.92,32.36L387.83,333.71z"/>
<path class="st6" d="M305.62,276.64l-188.2-20.17l-21.15-1.1c-13.36-0.76-26.33,4.57-35.16,14.44c-11.02,12.45-19.34,34.4-7.18,72.1
	c0,0,12.68,48.87,74.11,59.37l178.49,39.74c3.96,0.88,7.86,1.97,11.72,3.2c16.2,5.23,71.11,18.78,96.97-27.28
	c8.86-15.79,11.52-34.21,8.1-51.93C417.1,332.58,393.6,277.57,305.62,276.64z M397.83,414.83c-24.14,38.63-73.87,27.13-88.83,22.6
	c-3.66-1.11-7.37-2.08-11.12-2.87L133,399.9c-56.81-9.17-68.54-51.83-68.54-51.83c-9.59-28.04-5.4-46.14,2.35-57.59
	c8.12-11.99,22.25-18.69,36.89-17.97l19.49,0.98l168.34,22.09c3.41,0.45,6.84,0.74,10.27,0.86c74.86,2.49,98.15,42.93,104.07,70.8
	C409.35,383.54,406.7,400.63,397.83,414.83z"/>
<linearGradient id="SVGID_1_" gradientUnits="userSpaceOnUse" x1="-800.7867" y1="54.6521" x2="-800.7867" y2="319.9411" gradientTransform="matrix(-1 0 0 -1 -673.59 416.09)">
	<stop  offset="0" style="stop-color:#808080;stop-opacity:0.25"/>
	<stop  offset="0.54" style="stop-color:#808080;stop-opacity:0.12"/>
	<stop  offset="1" style="stop-color:#808080;stop-opacity:0.1"/>
</linearGradient>
<path class="st11" d="M4.12,358.85c6.16,4.05,15.52,2.13,15.52,2.13s14.12-6.57,18.29-6.57s14.32-4.06,14.32-4.06l-0.35-2.74
	l-1.03-8.24c6.42,4.92,13.57,3.22,17.08,2.86c3.78-0.38,23.95-12.17,25.89-12.94c0.53-0.21,1.14-0.88,1.77-1.75l0,0
	c1.3-1.95,2.44-4,3.42-6.13l0,0c1.26-1.09,2.18-1.97,2.12-2.16c-0.07-0.19,0.5-1.63,1.24-3.25c2.86-0.49,5.33-1.53,6.12-2.16
	c1.31-1.03,2.05-2.6,2-4.25c0,0,19.69-19.51,17.1-27.62c-2.59-8.11,6.36-8.31,6.36-8.31s13.72-5.8,15.62-9.27
	c1.18-2.14,11.47-6.84,19.21-10.13l0.95-0.4c3,6.47,18.27,1.48,21.27-1.24c3.18-2.9,12.52-4.25,12.52-4.25s0.4-37.88,3.38-42.69
	c1.42-2.29,1.76-9.77,1.72-16.99c0-0.26,0-0.49,0-0.77c4.18-0.8,14.11-2.66,18.72-3.1c2.92-0.29,5.97-2.08,8.31-3.82l0.28,0.34
	c0.8,0.32,1.67,0.46,2.54,0.41c0.77,0.08,1.54-0.06,2.23-0.41c1.79-0.98,8.35-2.9,10.74-3.86c2.38-0.96-0.4-7.92-2.18-9.27
	c-1.79-1.35-3-3.09-2-3.86s-2.38-2.71-4.37-3.09c-1.99-0.39-7.95-3.09-7.95-3.09s-2.19-4.43-5.76-4.43c-3.58,0-8.35-3.48-8.35-3.48
	c-0.2-1.54-3.98-1.74-3.98-1.74s-14.31-10.82-16.7-9.47s-8.94-2.13-8.94-2.13s-8.05,0.89-9.94-0.57l0,0
	c-0.02-0.48-0.19-0.94-0.5-1.31c-0.43-1.31-2.5-3.1-4.51-4.59c0.15-0.92,0.23-1.86,0.23-2.79c0-0.4,0-0.81-0.05-1.21
	c0-0.07,0-0.13,0-0.2l0.29-2.72c0.02-0.89,0.26-1.77,0.69-2.56c0.34-0.49,0.83-0.91,1.21-1.4c0.09-0.11,0.17-0.23,0.24-0.36
	l0.06-0.1c0.06-0.09,0.11-0.19,0.15-0.29l0.05-0.1c0.11-0.27,0.2-0.54,0.26-0.83v-0.06c0.03-0.13,0.05-0.26,0.06-0.39
	c0-0.02,0-0.04,0-0.05c0.08-1.12-0.07-2.25-0.45-3.32c-0.6-1.83-1.53-3.59-1.63-5.49c-0.05-0.94,0.11-1.91-0.1-2.83
	c-0.5-2.11-2.69-3.44-4.82-4.33c-2.94-1.21-4.42-2.53-6.78-4.33c-2-1.53-5.32-0.76-7.84-0.6c-5.77,0.36-11.46,2.07-16.89,3.83
	c-2.11,0.69-4.26,1.48-5.9,2.88c-1.11,0.92-1.87,2.18-2.16,3.58l0,0c-0.06,0.32-0.08,0.65-0.07,0.98c0,0.03,0,0.06,0,0.08
	c0,0.13,0,0.25,0.05,0.37c0,0.04,0,0.08,0,0.12c0.02,0.15,0.06,0.3,0.11,0.44l0,0c0.23,0.71,0.66,1.36,0.9,2.07
	c0.06,0.16,0.1,0.33,0.14,0.49c0,0,0,0.03,0,0.05c0.04,0.16,0.06,0.31,0.08,0.49l0,0c0.22,1.76-0.44,3.59-0.73,5.38
	c-0.04,0.25-0.07,0.49-0.09,0.77l0,0l0,0c-0.09,1.04,0.01,2.08,0.28,3.08c0,0.01,0,0.02,0,0.03c0.03,0.12,0.08,0.25,0.12,0.36
	c0.01,0.05,0.03,0.11,0.05,0.16c0.04,0.1,0.08,0.21,0.12,0.31l0.09,0.21c0.04,0.09,0.09,0.18,0.13,0.27
	c0.05,0.09,0.08,0.15,0.12,0.22c0.04,0.08,0.09,0.16,0.14,0.24c0.05,0.08,0.1,0.15,0.15,0.23s0.1,0.14,0.15,0.21
	c0.06,0.07,0.12,0.15,0.18,0.23l0.16,0.19l0.21,0.22l0.17,0.16l0.25,0.21c0.06,0.04,0.11,0.09,0.17,0.13
	c0.06,0.04,0.21,0.14,0.31,0.21l0.15,0.1c0.16,0.09,0.33,0.18,0.5,0.26c1.14,0.49,2.58,0.69,3.27,1.68
	c0.16,0.23,0.28,0.49,0.34,0.77c0,0.06,0,0.13,0,0.2v0.17c0,0.57,0.04,1.14,0.1,1.69c0,0.31,0.01,0.61,0.06,0.92
	c0.03,0.23,0.1,0.45,0.19,0.66c0.8,3.89,2.92,7.39,6.01,9.95c0.06,0.3,0.13,0.65,0.21,1.04c-1.75,1.29-3.7,2.29-5.78,2.95
	c-4.77,1.37-11.52,7.7-11.52,7.7s-3.36,23.76-4.16,26.65c-0.81,2.9-1.4,14.1-1.4,14.1s-0.8,4.63-2,6.95
	c-0.85,1.63-0.69,8.65,1.66,12.92c-0.38,0.84-0.88,1.63-1.46,2.34c-4.77,5.41-19.09,5.21-23.86,5.21c-4.39,0-5.75,2.62-5.93,3.03
	c-8.74,2.46-37.03,10.37-40.39,11.81c-3.98,1.71-6.16,18.58-6.16,18.58s-8.31,28-7.91,31.67c0.4,3.67-2.78,13.89-2.78,13.89
	s0,11.56-1.35,12.34c-0.01,0.01-0.03,0.02-0.04,0.02c-1.39,0.58-1.2,6.18-1.2,6.18s1.03,0.29,2.62,0.69c-0.43,2.83-2,6.79-3.22,9.6
	c-0.62-0.77-1.23-1.09-1.59-0.2c-1,2.46-15.9,19.85-19.69,19.85c-1.8,0-4.77,1.45-6.73,3.4C1.8,353.97,0.89,356.73,4.12,358.85z
	 M72.5,258.21c16.9,1.54,34.99-1.18,34.99-1.18s-1.39,4.85-2.58,6.78s-4.58,12.94-4.58,15.25s-5.37,22.21-6.96,23.18
	c-0.67,0.41-1.26,1.42-1.73,2.46c-0.42,0.96-0.77,1.95-1.05,2.95c0.02,0.5,0.07,0.98,0.14,1.43c-1.19,1.07-2.44,2.19-3.56,3.18l0,0
	c0,0-7.11,3.89-9.51,6.01c-2.4,2.13-13.52,4.73-13.52,4.73c-2.76,1.16-5.43,2.5-8.01,4.01c-3.45,2.04-6.9,4.64-7.8,7.2
	c0.39-4.32,1.03-9.52,1.45-12.83l0.63-0.02c5.57-0.34,4.74-5.56,4.45-6.86c-0.04-0.19-0.07-0.29-0.07-0.29
	c3.98-4.25,12.92-35.91,11.73-39.41c-1.19-3.49,1-6.57,1.47-6.57s1.12-3.86,0.13-5.99C67.11,260.14,72.5,258.21,72.5,258.21z
	 M209.16,172.99l-1.06,0.26v-0.22C208.1,173.03,208.49,173.03,209.16,172.99z M151.39,143.84c-0.16,0.2-0.32,0.38-0.5,0.57
	l-0.21,0.21c0-0.36,0-0.72,0-1.07C150.93,143.64,151.16,143.75,151.39,143.84z M131.48,181.32l0.07,1.09c0,0-0.11,0.66-0.31,1.8
	L131.48,181.32z M222.84,170.53l-3.47,0.59c0.5-0.18,0.98-0.38,1.45-0.6c0.35-0.16,0.72-0.26,1.11-0.3
	c0.44,0.05,0.87,0.14,1.29,0.27C223.09,170.49,222.97,170.5,222.84,170.53z"/>
<path class="st12" d="M105.52,309.99c0,0-4.01,8.12-3.8,8.7c0.21,0.58-8.59,7.47-8.59,7.47l-9.56-6.71l1-4.6
	c0,0,10.73-9.5,11.52-10.6C96.87,303.15,105.52,309.99,105.52,309.99z"/>
<path class="st13" d="M50.98,337.47c6.64,6.33,14.44,4.43,18.15,4.03c3.71-0.4,23.51-12.08,25.41-12.85
	c0.5-0.21,1.13-0.88,1.74-1.74l0,0c1.28-1.94,2.4-3.97,3.35-6.09c-0.13,0.03-6.62,1.86-8.26,0c0,0-2.73-3.29-3.32-3.29
	S88,311.76,88,311.76s-6.98,3.86-9.32,5.97c-2.34,2.11-13.27,4.69-13.27,4.69c-2.7,1.16-5.33,2.49-7.85,3.98
	C52.39,329.5,47.19,333.88,50.98,337.47z"/>
<path class="st4" d="M50.98,337.47c6.64,6.33,14.44,4.43,18.15,4.03c3.71-0.4,23.51-12.08,25.41-12.85c0.5-0.21,1.13-0.88,1.74-1.74
	c-2.31-1.35-17.39,8.07-21.61,9.8c-4.22,1.73-14.9,0.76-20.97-1.73c-3-1.24,0.04-5.07,3.86-8.58
	C52.39,329.5,47.19,333.88,50.98,337.47z"/>
<path class="st12" d="M51.76,317.54c0,0-2.78,20.51-2.07,23.2c0.71,2.69-17.44-9.2-17.44-9.2s6.35-12.86,4.51-15.81
	C34.91,312.78,51.76,317.54,51.76,317.54z"/>
<path class="st14" d="M34.4,317.92c0,0,11.32,3.26,17.56,2.87c5.47-0.33,4.65-5.52,4.37-6.8c-0.04-0.18-0.07-0.29-0.07-0.29
	c3.9-4.22,12.68-35.66,11.52-39.11c-1.17-3.45,0.95-6.49,1.45-6.49s1.1-3.84,0.12-5.94c-0.98-2.11,4.3-4.02,4.3-4.02
	c16.59,1.53,34.34-1.17,34.34-1.17s-1.37,4.81-2.54,6.73c-1.17,1.92-4.51,12.84-4.51,15.14s-5.27,22.05-6.83,23
	c-0.65,0.4-1.24,1.41-1.7,2.46c-0.41,0.96-0.76,1.95-1.03,2.95c0.59,12.85,15.41,7.87,17.56,6.13c0.31-0.25,0.58-0.53,0.83-0.84
	c0.75-0.97,1.15-2.16,1.12-3.38c0,0,19.32-19.36,16.78-27.41s6.24-8.24,6.24-8.24s13.47-5.75,15.34-9.2
	c1.16-2.12,11.25-6.78,18.85-10.06c4.76-2.05,8.54-3.55,8.54-3.55l-3.16-11.15l-2.5-8.79l-4.7-1.73l-15.02-5.55l-26.95-3.71
	l-2.47,0.31l-26.19,3.33c0,0-38.23,10.74-42.13,12.43c-3.91,1.68-6.05,18.43-6.05,18.43s-8.19,27.8-7.79,31.46
	c0.4,3.66-2.73,13.78-2.73,13.78s0,11.47-1.33,12.25c-0.01,0-0.03,0-0.04,0C34.2,312.38,34.4,317.92,34.4,317.92z"/>
<path class="st4" d="M73.62,258.11c16.59,1.53,34.34-1.17,34.34-1.17c1.17-3.63,17.57-13.59,17.57-13.59
	C112.08,240.09,73.62,258.11,73.62,258.11z"/>
<path class="st14" d="M91.37,307.19c0.59,12.85,15.41,7.87,17.56,6.13c0.31-0.25,0.58-0.53,0.83-0.84
	c-5.18,1.87-14.37,3.33-17.36-8.23C92,305.21,91.65,306.19,91.37,307.19z"/>
<path class="st14" d="M34.4,317.92c0,0,11.32,3.26,17.56,2.87c5.47-0.33,4.65-5.52,4.37-6.8c-5.73-0.18-15.59-0.7-20.72-2.23
	c-0.01,0-0.03,0-0.04,0C34.2,312.38,34.4,317.92,34.4,317.92z"/>
<path class="st4" d="M91.37,307.19c0.59,12.85,15.41,7.87,17.56,6.13c0.31-0.25,0.58-0.53,0.83-0.84
	c-5.18,1.87-14.37,3.33-17.36-8.23C92,305.21,91.65,306.19,91.37,307.19z"/>
<path class="st4" d="M34.4,317.92c0,0,11.32,3.26,17.56,2.87c5.47-0.33,4.65-5.52,4.37-6.8c-5.73-0.18-15.59-0.7-20.72-2.23
	c-0.01,0-0.03,0-0.04,0C34.2,312.38,34.4,317.92,34.4,317.92z"/>
<path class="st13" d="M6.49,357.99c6.05,4.02,15.22,2.11,15.22,2.11s13.85-6.51,17.95-6.51s14.03-4.03,14.03-4.03l-0.34-2.71
	l-1.61-13.01c0,0-15.2-0.38-15.81-1.73c0,0-2.73-6.6-3.71-4.16s-15.61,19.68-19.32,19.68c-1.77,0-4.69,1.44-6.61,3.37
	C4.22,353.15,3.32,355.88,6.49,357.99z"/>
<path class="st4" d="M58.98,244.69c0,0,12.68,7.87,9.17,9.58S58.98,244.69,58.98,244.69z"/>
<path class="st4" d="M53.7,259.84c0,0,10.93,10.19,6.83,10.46S53.7,259.84,53.7,259.84z"/>
<path class="st4" d="M42,292.21c0,0,5.55,10.25,3.46,12.02C43.38,306.01,42,292.21,42,292.21z"/>
<path class="st4" d="M103.08,302.59c-1.95,1.91,18.53-6.33,13.85-6.71C112.26,295.49,103.08,302.59,103.08,302.59z"/>
<path class="st12" d="M144.06,158.81l0.66-0.09c2.42-0.36,11.22-1.72,19.11-3.4c1.92-0.41,3.79-0.84,5.51-1.28
	c6.04-1.55,10.1-3.23,7.51-4.61c-3.43-1.83-5.23-5.14-6.18-7.99c-0.09-0.28-0.18-0.55-0.26-0.82c-0.42-1.44-0.68-2.93-0.79-4.43
	c0,0-22.03-7.67-17.76,0c2.11,3.76,0.69,6.83-1.3,8.98c-1.37,1.42-2.97,2.6-4.75,3.48L144.06,158.81z"/>
<path class="st4" d="M167.67,152.87c0,0-7.89,5.56-15.94,0.96s-18.59,40.64-18.59,40.64l-10.93,26.45c0,0-7.08,5.75,1.73,8.25
	s28.35-2.49,33.31,4.79c4.96,7.29,14.36,8.43,15.32,8.43s4.68-27.42,4.68-27.42l0.97-39.68L167.67,152.87z"/>
<path class="st15" d="M124.31,227.63c8.81,2.49,28.35-2.49,33.32,4.79c2.09,2.97,5.01,5.28,8.41,6.66c2.19,0.97,4.53,1.58,6.93,1.8
	c0.13,0,0.31-0.49,0.53-1.37c1.37-5.55,4.15-26.04,4.15-26.04l0.96-39.68l-9.27-19.75l-1.27-2.7c-1.24,0.81-2.59,1.46-4.01,1.92
	c-3.05,1.01-7.46,1.58-11.93-0.98c-2.36-1.35-4.94,1.59-7.4,6.43c-5.93,11.63-11.19,34.22-11.19,34.22l-10.94,26.49
	c-0.26,0.22-0.51,0.45-0.74,0.7C120.3,221.69,117.39,225.67,124.31,227.63z"/>
<path class="st4" d="M166.29,228.96c-0.43,3.35-0.52,6.73-0.26,10.1c0.32,4.79,0.93,9.55,1.83,14.27c0.06,0.3,0.14,0.59,0.24,0.87
	c4.76-2.05,8.54-3.55,8.54-3.55l-3.16-11.15c1.37-5.55,4.15-26.04,4.15-26.04l0.96-39.68l-9.27-19.74c6.04-1.55,10.1-3.23,7.51-4.61
	c-3.76-2-5.56-5.8-6.43-8.82c-1.59,2.17-3.45,4.14-5.53,5.86l-0.12,0.1l-0.7,6.69l-0.22,2.06l-0.45,4.27c0,0,2.15,50.42,3.71,53.3
	c1.56,2.88,0.78,8.43-0.58,14.95C166.42,228.19,166.37,228.57,166.29,228.96z"/>
<path class="st13" d="M167.28,227.06c-1.36,6.52-0.2,17.25,1.37,25.49c1.56,8.24,18.15,2.88,21.27,0s12.29-4.22,12.29-4.22
	s0.39-37.57,3.32-42.36c1.39-2.27,1.72-9.69,1.69-16.86c-0.03-6.43-0.35-12.67-0.47-14.76c-0.03-0.49-0.05-0.76-0.05-0.76
	s12.68-21.09,12.48-22.63c-0.2-1.54-3.9-1.72-3.9-1.72s-14.02-10.73-16.39-9.4s-8.78-2.11-8.78-2.11s-8.16,0.91-9.85-0.64
	c-0.21-0.17-0.32-0.44-0.3-0.7c0.19-2.46-8.31-7.69-8.58-7.87c7.17,6.34-4.42,16.1-5.74,17.17l-0.12,0.1l-1.37,13.01
	c0,0,2.15,50.42,3.71,53.3S168.64,220.54,167.28,227.06z"/>
<ellipse class="st14" cx="168.03" cy="172.29" rx="0.98" ry="0.96"/>
<path class="st4" d="M166.03,146.47l5.93,5.63l8.69-14.27c-0.21-0.17-0.32-0.44-0.3-0.7c0.19-2.46-8.32-7.69-8.58-7.87
	C178.94,135.63,167.37,145.39,166.03,146.47z"/>
<ellipse class="st4" cx="169.99" cy="202.96" rx="0.98" ry="0.96"/>
<ellipse class="st14" cx="169.99" cy="202.57" rx="0.98" ry="0.96"/>
<path class="st13" d="M165.64,145.7l5.93,5.63l8.69-14.27c-0.21-0.17-0.32-0.44-0.3-0.7c0.19-2.46-8.31-7.69-8.58-7.87
	C178.55,134.86,166.96,144.62,165.64,145.7z"/>
<path class="st16" d="M172.22,199.65l-11.88-0.27c-0.47-0.01-0.84-0.39-0.83-0.86l0.62-26.51c0.01-0.46,0.4-0.83,0.87-0.82
	l11.88,0.27c0.47,0.01,0.84,0.39,0.83,0.86l-0.62,26.51C173.08,199.29,172.69,199.66,172.22,199.65z"/>
<path class="st17" d="M172.29,200.27L160.42,200c-0.47-0.01-0.84-0.39-0.83-0.86l0.62-26.51c0.01-0.46,0.4-0.83,0.87-0.82
	l11.88,0.27c0.47,0.01,0.84,0.39,0.83,0.86l-0.62,26.51C173.15,199.91,172.76,200.28,172.29,200.27z"/>
<ellipse class="st18" cx="167.04" cy="180.21" rx="2.13" ry="2.1"/>
<path class="st4" d="M93.52,225.33c4.88,2.11,36.88-3.44,41.56-4.79c4.68-1.35,11.52-11.69,8.2-19.19
	c-3.32-7.49,1.17-14.76,1.17-14.76s7.01-14.76,8.59-17.64s4.82-11.25,5.27-12.65c0.04-0.32-0.06-0.64-0.28-0.88
	c-1.27-1.88-6.18-5.24-6.18-5.24c-1.38,0.49-1.55-3.39-1.5-6.24c0.03-1.59,0.13-2.86,0.13-2.86s-0.65,0.64-1.7,1.53
	c-0.39,0.32-0.83,0.67-1.32,1.04c-1.83,1.44-3.9,2.56-6.12,3.3c-4.68,1.36-11.32,7.65-11.32,7.65l1.95,29.44
	c0,0-4.51,27.69-9.17,33.06s-18.73,5.18-23.42,5.18C94.69,222.26,93.52,225.33,93.52,225.33z"/>
<path class="st13" d="M93.13,224.18c4.88,2.11,36.88-3.44,41.56-4.8c4.68-1.35,11.52-11.69,8.2-19.19s1.17-14.76,1.17-14.76
	s7.01-14.76,8.59-17.64c1.58-2.88,4.82-11.25,5.27-12.65c0.04-0.32-0.06-0.64-0.28-0.88c-1.28-1.88-6.16-5.22-6.16-5.22
	c-1.38,0.49-1.55-3.38-1.5-6.23c0.03-1.6,0.13-2.87,0.13-2.87s-0.65,0.64-1.7,1.53c-0.39,0.31-0.83,0.67-1.32,1.03
	c-1.84,1.44-3.92,2.56-6.15,3.3c-4.68,1.36-11.32,7.65-11.32,7.65l1.95,29.44c0,0-4.51,27.69-9.17,33.06s-18.73,5.18-23.42,5.18
	S93.13,224.18,93.13,224.18z"/>
<path class="st4" d="M146.2,140.68c0,0,0.19,1.01,0.5,2.56c1.05,5.26,3.56,16.76,5.36,16.31c1.3-0.32,3.51-2.57,5.19-4.52
	c-1.27-1.9-6.16-5.25-6.16-5.25c-1.38,0.49-1.55-3.38-1.5-6.23l-1.58-1.34L146.2,140.68z"/>
<path class="st13" d="M146.59,139.93c0,0,0.19,1.01,0.5,2.56c1.05,5.26,3.56,16.76,5.36,16.31c1.3-0.32,3.51-2.57,5.19-4.52
	c-1.29-1.89-6.17-5.24-6.17-5.24c-1.38,0.49-1.55-3.38-1.5-6.23l-1.58-1.34L146.59,139.93z"/>
<path class="st12" d="M134.11,196.38c0,0,9.76-1.91,12.49-6.13c2.73-4.22,21.32-7.87,19.03-3.44s-19.03,18.84-19.03,18.84
	l-7.27,10.22l-9.7-2.42l-4.09-7.82L134.11,196.38z"/>
<path class="st4" d="M157.19,207.32c0,0-9.45,3.44-10.87,8.05C144.9,219.98,157.19,207.32,157.19,207.32z"/>
<path class="st4" d="M162.98,212.68c0,0,0.86,4.79-10.98,4.43L162.98,212.68z"/>
<path class="st4" d="M214.11,151.33l4.3-0.38c0,0,4.68,3.44,8.19,3.44s5.66,4.43,5.66,4.43s5.85,2.69,7.81,3.07
	c1.95,0.38,5.27,2.3,4.29,3.06c-0.98,0.77,0.2,2.49,1.95,3.83s4.51,8.25,2.14,9.2c-2.36,0.96-8.78,2.87-10.52,3.83
	c-1.74,0.96-3.9,0-3.9,0s-10.34-13.23-15.61-10.73c-5.27,2.49-12.49,2.48-12.49,2.48l-5.66-11.69L214.11,151.33z"/>
<path class="st13" d="M124.31,214.41c0.92,1.35,2.11,2.29,3.64,2.48c3.82,0.44,7.69,0.09,11.36-1.03c0,0-19.66-6.13-0.73-21.05
	h-5.06l-1.7-0.63l0.77-3.97l1.11-35.81l-4.1-0.96c0,0-3.3,23.58-4.09,26.45c-0.79,2.87-1.38,14-1.38,14s-0.78,4.6-1.95,6.89
	C121.3,202.52,121.55,210.32,124.31,214.41z"/>
<path class="st4" d="M125.1,214.41c0.92,1.35,2.11,2.29,3.64,2.48c3.82,0.44,7.69,0.09,11.36-1.03c0,0-19.66-6.13-0.73-21.06h-5.05
	l-1.69-0.63C129.81,199.02,125.46,207.62,125.1,214.41z"/>
<path class="st19" d="M124.31,214.41c0.92,1.35,2.11,2.29,3.64,2.48c3.82,0.44,7.69,0.09,11.36-1.03c0,0-19.66-6.13-0.73-21.05
	h-5.06l-1.7-0.63C129.05,199.02,124.68,207.62,124.31,214.41z"/>
<path class="st13" d="M124.31,214.41c0.92,1.35,2.11,2.29,3.64,2.48c3.82,0.44,7.69,0.09,11.36-1.03c0,0-19.66-6.13-0.73-21.05
	h-5.06l-1.7-0.63C129.05,199.02,124.68,207.62,124.31,214.41z"/>
<path class="st4" d="M150.57,145.17c6.83,3.05,14.88,1.54,20.1-3.75c-0.09-0.28-0.18-0.55-0.26-0.82c-0.42-1.44-0.68-2.93-0.79-4.43
	c0,0-22.03-7.67-17.76,0C153.97,139.95,152.55,143.02,150.57,145.17z"/>
<path class="st12" d="M140.15,128.52v0.17c0,0.57,0.04,1.13,0.1,1.68c0.06,0.55,0.14,1.05,0.24,1.57
	c1.93,9.45,11.28,15.58,20.9,13.69c6.19-1.22,11.26-5.57,13.31-11.43c0.12-0.34,0.23-0.68,0.32-1.02c0.43-1.51,0.64-3.08,0.64-4.65
	c0-0.4,0-0.8-0.05-1.2c-0.7-9.61-9.19-16.85-18.98-16.16C147.37,111.81,140.18,119.38,140.15,128.52L140.15,128.52z"/>
<path class="st4" d="M140.15,128.69c0.1,0.55,0.13,1.12,0.1,1.68c-0.01,0.3,0.01,0.61,0.05,0.91c0.03,0.23,0.1,0.45,0.19,0.66
	c0.72,1.65,3.06,2.73,4.61,1.66c0.6-0.48,1.07-1.09,1.38-1.78c1.64-3,3.92-6.44,7.51-6.5c1.53-0.03,2.97,0.61,4.45,0.98
	c1.48,0.38,3.23,0.41,4.34-0.58c0.85-0.76,1.25-2.06,2.39-2.33c1.14-0.27,2.19,0.76,2.71,1.76c0.52,1,0.94,2.18,2,2.71
	c0.47,0.23,1,0.3,1.5,0.54c2.12,1.14,1.15,5.14,3.35,5.79c0.07,0.02,0.14,0.04,0.21,0.05c0.04-0.35,0.08-0.72,0.11-1.07
	c0.2-1.95,0.4-3.9,0.6-5.84c-0.7-9.61-9.19-16.85-18.98-16.16c-9.28,0.65-16.47,8.22-16.49,17.36L140.15,128.69z"/>
<path class="st20" d="M171.7,102.48c2.09,0.87,4.26,2.21,4.73,4.3c0.21,0.92,0.05,1.87,0.1,2.81c0.1,1.89,1,3.64,1.6,5.45
	c0.6,1.81,0.8,3.94-0.38,5.46c-0.37,0.49-0.85,0.88-1.18,1.38c-0.43,0.79-0.66,1.67-0.68,2.57l-0.97,9.44
	c-2.47-0.46-1.37-4.67-3.57-5.84c-0.46-0.25-1-0.31-1.48-0.55c-1.06-0.49-1.47-1.7-2-2.7s-1.55-2.03-2.71-1.76
	c-1.16,0.27-1.54,1.57-2.38,2.33c-1.11,0.98-2.86,0.94-4.34,0.58c-1.48-0.37-2.92-0.98-4.45-0.98c-3.6,0.06-5.88,3.5-7.51,6.5
	c-0.31,0.69-0.79,1.31-1.39,1.79c-1.74,1.2-4.51-0.31-4.79-2.32c-0.17-1.13,0.19-2.38-0.47-3.34c-0.66-0.95-2.09-1.16-3.21-1.67
	c-2.85-1.29-3.74-4.79-3.27-7.72c0.35-2.12,1.2-4.29,0.5-6.33c-0.25-0.7-0.66-1.34-0.89-2.05c-0.63-1.97,0.4-4.15,2-5.55
	c1.61-1.4,3.72-2.17,5.79-2.85c5.32-1.76,10.91-3.44,16.58-3.81c2.48-0.16,5.73-0.92,7.7,0.6
	C167.37,99.96,168.81,101.28,171.7,102.48z"/>
<ellipse class="st4" cx="167.06" cy="157.14" rx="0.98" ry="0.96"/>
<ellipse class="st14" cx="167.06" cy="156.76" rx="0.98" ry="0.96"/>
<ellipse class="st4" cx="173.3" cy="217.34" rx="0.98" ry="0.96"/>
<ellipse class="st14" cx="173.3" cy="216.96" rx="0.98" ry="0.96"/>
<ellipse class="st4" cx="169.99" cy="233.25" rx="0.98" ry="0.96"/>
<ellipse class="st14" cx="169.99" cy="232.87" rx="0.98" ry="0.96"/>
<path class="st4" d="M136.45,172.29c0,0-2.15,14.32,0,16.81C138.6,191.59,136.45,172.29,136.45,172.29z"/>
<path class="st4" d="M200.26,198.88c0,0,4.1,8.67,0,16.99c-4.1,8.31-6.64,11.69-5.27,17C196.36,238.17,200.26,198.88,200.26,198.88z
	"/>
<path class="st4" d="M6.49,357.99c6.05,4.02,15.22,2.11,15.22,2.11s13.85-6.51,17.95-6.51s14.03-4.03,14.03-4.03l-0.34-2.71
	c-4.04,0.76-13.24,2.59-14.3,3.48c-1.37,1.15-18.15,6.71-18.15,6.71s-11.43-1.4-14.61-6.02C4.22,353.15,3.32,355.88,6.49,357.99z"/>
<g class="st5">
	<path d="M176.53,108.05c0-0.21,0-0.41,0-0.62c0,0.24,0,0.49,0,0.72C176.54,108.12,176.53,108.09,176.53,108.05z"/>
	<path d="M136.62,124.36c1.12,0.49,2.5,0.69,3.21,1.66s0.3,2.21,0.47,3.34c0.3,2.01,3.05,3.53,4.79,2.32
		c0.6-0.48,1.07-1.09,1.39-1.79c1.64-3,3.92-6.44,7.51-6.5c1.53-0.02,2.97,0.61,4.45,0.98c1.48,0.37,3.23,0.41,4.34-0.58
		c0.85-0.76,1.25-2.06,2.38-2.33c1.14-0.27,2.18,0.76,2.71,1.76c0.53,1,0.94,2.18,2,2.71c0.47,0.23,1,0.3,1.48,0.54
		c2.19,1.18,1.09,5.41,3.57,5.84c0.33-3.15,0.66-6.29,0.97-9.44c0.02-0.89,0.25-1.76,0.68-2.54c0.33-0.49,0.82-0.91,1.18-1.39
		c0.44-0.6,0.72-1.29,0.8-2.03c0.21,1.24-0.08,2.52-0.8,3.56c-0.37,0.49-0.85,0.88-1.18,1.38c-0.43,0.79-0.67,1.67-0.69,2.56
		c-0.33,3.15-0.66,6.29-0.97,9.44c-2.47-0.46-1.37-4.67-3.57-5.84c-0.46-0.25-1-0.31-1.48-0.55c-1.06-0.49-1.47-1.7-2-2.7
		s-1.55-2.03-2.71-1.76c-1.16,0.27-1.54,1.57-2.38,2.33c-1.11,0.98-2.86,0.94-4.34,0.58c-1.48-0.37-2.92-0.98-4.45-0.98
		c-3.59,0.06-5.87,3.5-7.51,6.5c-0.31,0.69-0.79,1.31-1.39,1.79c-1.74,1.2-4.51-0.31-4.79-2.32c-0.17-1.13,0.19-2.38-0.47-3.34
		s-2.09-1.16-3.21-1.67c-2.61-1.18-3.57-4.21-3.35-6.96C133.46,121.2,134.5,123.4,136.62,124.36z"/>
	<path d="M132.97,108.26c0.23,0.7,0.64,1.35,0.89,2.05c0.26,0.82,0.33,1.68,0.22,2.52c-0.04-0.33-0.11-0.66-0.22-0.98
		c-0.25-0.7-0.66-1.34-0.89-2.05c-0.2-0.65-0.24-1.34-0.12-2C132.89,107.96,132.93,108.11,132.97,108.26z"/>
</g>
<path class="st21" d="M243.06,266.16l-40.22-4.94c-0.84-0.1-1.44-0.86-1.34-1.68c0.04-0.33,0.19-0.63,0.42-0.86l16.87-17.22
	c0.33-0.34,0.81-0.51,1.28-0.45l30.75,3.38c0.84,0.09,1.45,0.84,1.36,1.67c-0.01,0.13-0.05,0.26-0.09,0.38l-7.4,18.79
	C244.43,265.86,243.76,266.25,243.06,266.16z"/>
<path class="st4" d="M243.06,266.16l-40.22-4.94c-0.84-0.1-1.44-0.86-1.34-1.68c0.04-0.33,0.19-0.63,0.42-0.86l16.87-17.22
	c0.33-0.34,0.81-0.51,1.28-0.45l30.75,3.38c0.84,0.09,1.45,0.84,1.36,1.67c-0.01,0.13-0.05,0.26-0.09,0.38l-7.4,18.79
	C244.43,265.86,243.76,266.25,243.06,266.16z"/>
<path class="st21" d="M242.6,265.72l-40.22-4.96c-0.84-0.11-1.44-0.86-1.33-1.7c0.04-0.32,0.19-0.62,0.42-0.86l16.87-17.22
	c0.33-0.34,0.81-0.51,1.28-0.46l30.75,3.38c0.85,0.09,1.46,0.84,1.36,1.67c-0.01,0.13-0.05,0.26-0.09,0.38l-7.41,18.79
	C243.98,265.4,243.31,265.8,242.6,265.72z"/>
<path class="st16" d="M218.64,247.73l12.08,0.95l17.23-1.1h-0.3l-15.96-1.52c-3.66-1.32-1.12-9.08-1.12-9.08l-12.22,0.61l-0.98,0.05
	C213.04,247.58,218.64,247.73,218.64,247.73z"/>
<path class="st4" d="M218.64,247.73l12.08,0.95l17.23-1.1h-0.3l-17.42,0.61l-11.67-1.24c-3.32-0.86-1.42-6.5-0.22-9.35l-0.98,0.05
	C213.04,247.58,218.64,247.73,218.64,247.73z"/>
<path class="st22" d="M197.48,177.16l3.7,52.08l0.5,6.83c0.1,1.57,1.44,2.78,3.03,2.76h1.12l55.64-0.33
	c0.87-0.01,1.56-0.71,1.55-1.56c0-0.04,0-0.09-0.01-0.13l-0.5-6.84l-3.92-45.79c-0.12-1.22-0.96-2.26-2.14-2.66l-53.03-7.81
	c-1.8-0.61-3.64-0.4-4.79,0.54C197.78,174.97,197.35,176.07,197.48,177.16z"/>
<path class="st17" d="M201.17,229.24l0.5,6.83c0.1,1.57,1.44,2.78,3.03,2.76h1.12l55.64-0.33c0.87-0.01,1.56-0.71,1.55-1.56
	c0-0.04,0-0.09-0.01-0.13l-0.5-6.84L201.17,229.24z"/>
<ellipse class="st18" cx="238.47" cy="234.91" rx="0.75" ry="1.47"/>
<path class="st16" d="M236.31,254.39c0,0-15.21-5.64-19.31-1.54c0,0-0.67,1.25,2.09,1.54l11.15,0.88
	C230.23,255.27,234.82,255.71,236.31,254.39z"/>
<path class="st17" d="M235.9,252.93c-3-1.2-11.98-4.3-17.74-0.87c0,0,6.37-0.69,9.87,1.29c3.5,1.99,8.28,1.04,8.28,1.04l0.07-0.12
	c0.26-0.46,0.1-1.04-0.37-1.29C235.97,252.96,235.94,252.94,235.9,252.93z"/>
<path class="st17" d="M197.48,177.16l4.18,58.92c0.1,1.57,1.44,2.78,3.03,2.76h1.12c-0.77-0.72-1.42-1.55-1.94-2.46
	c0,0-4.1-59.2-4.4-60.67c-0.13-0.55-0.42-1.05-0.83-1.45C197.78,174.98,197.35,176.07,197.48,177.16z"/>
<path class="st4" d="M197.48,177.16l4.18,58.92c0.1,1.57,1.44,2.78,3.03,2.76h1.12c-0.77-0.72-1.42-1.55-1.94-2.46
	c0,0-4.1-59.2-4.4-60.67c-0.13-0.55-0.42-1.05-0.83-1.45C197.78,174.98,197.35,176.07,197.48,177.16z"/>
<path class="st4" d="M190.3,193.5c4.51-0.98,15.02-4.01,15.02-4.01l1.88-0.37c-0.03-6.43-0.35-12.67-0.47-14.76h-0.05
	c0,0-8.98,2.88-11.12,4.43c-2.14,1.55-8.78,1.15-8.78,1.15s-10.34,0.55-18.91,9.96C159.29,199.29,185.81,194.47,190.3,193.5z"/>
<path class="st12" d="M234.16,176.39c1.31,0.59,1.89,2.11,1.29,3.4c-0.16,0.35-0.4,0.66-0.7,0.9c-2.38,1.93-5.85,4.25-9.16,4.57
	c-5.51,0.55-18.83,3.17-20.15,3.44c-0.07,0.01-0.14,0.03-0.21,0.05c-1.1,0.31-10.69,3.07-14.92,3.98
	c-4.51,0.98-31.05,5.76-22.44-3.63c7.9-8.65,17.29-9.84,18.74-9.95c0.11-0.01,0.23-0.01,0.35,0c1,0.04,6.67,0.24,8.63-1.16
	c1.02-0.63,2.1-1.16,3.22-1.58c4.24-1.72,8.67-2.98,13.2-3.74l9.18-1.57c0.52-0.09,1.06-0.02,1.54,0.2L234.16,176.39z"/>
<path class="st13" d="M214.89,151.33l4.29-0.38c0,0,4.69,3.44,8.2,3.44s5.66,4.43,5.66,4.43s5.85,2.69,7.81,3.07
	c1.95,0.38,5.27,2.3,4.29,3.06c-0.98,0.77,0.2,2.49,1.95,3.83s4.51,8.25,2.14,9.2s-8.78,2.87-10.52,3.83c-1.74,0.96-3.9,0-3.9,0
	s-10.36-13.24-15.63-10.74s-12.49,2.49-12.49,2.49l-5.66-11.69L214.89,151.33z"/>
<path class="st2" d="M471.84,392.4c-0.48,0.65-0.86,1.36-1.14,2.11c-0.08,0.18-0.14,0.39-0.21,0.6c-0.13-0.06-0.26-0.1-0.4-0.14
	c-0.58-0.14-1.19-0.19-1.79-0.15c0-0.23,0-0.47,0.04-0.72c0.07-2.59-0.24-6.2-2.75-4.67c-2.42,1.48-0.7,3.94,0.86,5.51l0.4,0.39
	c-1.42,0.98-1.69,3.31-1.93,5.73s-2.32,5.06-3.71,6.56c-0.14,0.16-0.27,0.29-0.39,0.42c-1.13-0.88-2.58-1.25-4.01-1.02l-0.19-0.66
	c-1.12-3.98-3.45-10.87-6.42-12.38c0.13-0.15,0.26-0.31,0.39-0.49c1.26-1.62,2.68-4.03,0.58-4.64s-2.28,2.09-2.17,4.11
	c0,0.26,0.02,0.5,0.06,0.72c-0.85,0.04-1.64,0.42-2.2,1.05l-0.32-0.38c-1.7-1.97-4.83-5.1-5.77-2.74c-0.88,2.2,1.87,5.07,3.8,6.73
	l0.12,0.1c-1.3,5.17,4.37,9.39,7.42,11.23l0.39,0.24c-4.21,4.87-6.8,14-6.8,14l11.78,2.07c0,0,7.81-6.62,6.81-12.84h0.08
	c7.8-1.53,9.58-9.71,8.36-14.56l0.14-0.06c1.42-0.57,2.66-1.5,3.61-2.69C478.66,392.83,474.08,389.47,471.84,392.4z"/>
<path class="st4" d="M471.84,392.4c-0.48,0.65-0.86,1.36-1.14,2.11c-0.08,0.18-0.14,0.39-0.21,0.6c-0.13-0.06-0.26-0.1-0.4-0.14
	c-0.58-0.14-1.19-0.19-1.79-0.15c0-0.23,0-0.47,0.04-0.72c0.07-2.59-0.24-6.2-2.75-4.67c-2.42,1.48-0.7,3.94,0.86,5.51l0.4,0.39
	c-1.42,0.98-1.69,3.31-1.93,5.73s-2.32,5.06-3.71,6.56c-0.14,0.16-0.27,0.29-0.39,0.42c-1.13-0.88-2.58-1.25-4.01-1.02l-0.19-0.66
	c-1.12-3.98-3.45-10.87-6.42-12.38c0.13-0.15,0.26-0.31,0.39-0.49c1.26-1.62,2.68-4.03,0.58-4.64s-2.28,2.09-2.17,4.11
	c0,0.26,0.02,0.5,0.06,0.72c-0.85,0.04-1.64,0.42-2.2,1.05l-0.32-0.38c-1.7-1.97-4.83-5.1-5.77-2.74c-0.88,2.2,1.87,5.07,3.8,6.73
	l0.12,0.1c-1.3,5.17,4.37,9.39,7.42,11.23l0.39,0.24c-4.21,4.87-6.8,14-6.8,14l11.78,2.07c0,0,7.81-6.62,6.81-12.84h0.08
	c7.8-1.53,9.58-9.71,8.36-14.56l0.14-0.06c1.42-0.57,2.66-1.5,3.61-2.69C478.66,392.83,474.08,389.47,471.84,392.4z"/>
<path class="st2" d="M448.39,395.73l-1.38,3.96c0,0-0.76-0.53-1.73-1.37c-1.93-1.66-4.68-4.52-3.8-6.73
	c0.94-2.37,4.07,0.76,5.77,2.74C447.94,395.12,448.39,395.73,448.39,395.73z"/>
<path class="st2" d="M451.31,393.47c-0.42,0.55-0.87,1.07-1.35,1.56c-0.12-0.69-0.2-1.39-0.25-2.09c-0.12-2.02,0.1-4.72,2.17-4.11
	C453.95,389.44,452.56,391.85,451.31,393.47z"/>
<path class="st2" d="M469.06,394.09c-0.05,1.3-0.18,2.35-0.18,2.35c-0.61-0.47-1.18-0.97-1.72-1.51c-1.56-1.58-3.28-4.04-0.86-5.51
	C468.84,387.89,469.13,391.5,469.06,394.09z"/>
<path class="st2" d="M477.19,395.8c-0.95,1.19-2.19,2.11-3.61,2.69c-0.39,0.17-0.8,0.32-1.21,0.43l-1.62-2.24
	c0.17-0.74,0.39-1.47,0.67-2.17c0.27-0.75,0.66-1.46,1.14-2.11C474.8,389.47,479.38,392.83,477.19,395.8z"/>
<path class="st4" d="M447.25,394.34c0.69,0.79,1.14,1.4,1.14,1.4l-1.38,3.96c0,0-0.76-0.53-1.73-1.37c0.21-1.27,0.74-2.46,1.55-3.48
	C446.97,394.66,447.12,394.49,447.25,394.34z"/>
<path class="st4" d="M451.31,393.47c-0.42,0.55-0.87,1.07-1.35,1.56c-0.12-0.69-0.2-1.39-0.25-2.09
	C450.29,392.96,450.84,393.14,451.31,393.47z"/>
<path class="st2" d="M458.07,409.19l-3.43,1.48c-0.62-0.31-1.23-0.65-1.82-1.01c-3.6-2.17-10.84-7.65-6.01-14.1
	c4.83-6.45,8.9,5.12,10.52,10.78C457.82,408.03,458.07,409.19,458.07,409.19z"/>
<path class="st4" d="M467.17,394.93c0.5-0.5,1.18-0.8,1.89-0.84c-0.05,1.3-0.18,2.35-0.18,2.35
	C468.28,395.98,467.71,395.47,467.17,394.93z"/>
<path class="st4" d="M473.58,398.48c-0.39,0.17-0.8,0.32-1.21,0.43l-1.62-2.24c0.17-0.74,0.39-1.47,0.67-2.17
	C472.47,395.11,473.24,396.6,473.58,398.48z"/>
<path class="st2" d="M465.08,413.11c-0.19,0.04-0.38,0.07-0.58,0.1c-11.48,1.71-3.79-4.37-3.79-4.37s0.5-0.47,1.22-1.23
	c1.38-1.48,3.47-4.13,3.71-6.56c0.36-3.66,0.78-7.08,5.17-6.08C475.13,395.96,475.95,410.97,465.08,413.11z"/>
<rect x="442.93" y="441.2" class="st23" width="21.94" height="5.67"/>
<rect x="439.44" y="422.78" class="st23" width="28.66" height="19.78"/>
<rect x="442.93" y="441.2" class="st4" width="21.94" height="5.67"/>
<rect x="439.44" y="422.78" class="st4" width="28.66" height="19.78"/>
<rect x="444.37" y="441.2" class="st23" width="21.94" height="5.67"/>
<path class="st4" d="M457.32,406.35c0.5,1.69,0.74,2.85,0.74,2.85l-3.43,1.48c-0.62-0.31-1.23-0.65-1.82-1.01
	C454.16,407.99,455.68,406.73,457.32,406.35z"/>
<path class="st4" d="M465.08,413.11c-0.19,0.04-0.38,0.07-0.58,0.1c-11.48,1.71-3.79-4.37-3.79-4.37s0.5-0.47,1.22-1.23
	C464.08,409.3,464.96,411.19,465.08,413.11z"/>
<path class="st2" d="M446.41,423.9c0,0,6.43-22.63,15.44-15.64c9.01,6.99-3.67,17.71-3.67,17.71L446.41,423.9z"/>
<ellipse class="st4" cx="449.66" cy="399.1" rx="0.72" ry="0.71"/>
<ellipse class="st4" cx="449.6" cy="402.4" rx="0.72" ry="0.71"/>
<ellipse class="st4" cx="470.51" cy="399.75" rx="0.72" ry="0.71"/>
<ellipse class="st4" cx="453.68" cy="416.7" rx="0.72" ry="0.71"/>
<ellipse class="st4" cx="469.01" cy="405.24" rx="0.72" ry="0.71"/>
<ellipse class="st4" cx="461.55" cy="412.56" rx="0.72" ry="0.71"/>
<ellipse class="st4" cx="452.12" cy="400.51" rx="0.72" ry="0.71"/>
<ellipse class="st4" cx="468.52" cy="401.87" rx="0.72" ry="0.71"/>
<ellipse class="st4" cx="466.06" cy="407.36" rx="0.72" ry="0.71"/>
<ellipse class="st4" cx="458.49" cy="416.16" rx="0.72" ry="0.71"/>
<ellipse class="st4" cx="456.93" cy="412.68" rx="0.72" ry="0.71"/>
<ellipse class="st4" cx="453.2" cy="404.82" rx="0.72" ry="0.71"/>
<rect x="444.37" y="441.2" class="st4" width="21.94" height="2.07"/>
<rect x="440.88" y="422.78" class="st23" width="28.66" height="19.78"/>
<ellipse class="st4" cx="459.45" cy="419.35" rx="0.72" ry="0.71"/>
<ellipse class="st4" cx="455.12" cy="420.24" rx="0.72" ry="0.71"/>
</svg>
